<?xml version="1.0" encoding="utf-8"?>
<svg version="1.1" id="Layer_1" xmlns="http://www.w3.org/2000/svg" xmlns:xlink="http://www.w3.org/1999/xlink" x="0px" y="0px"
	 viewBox="0 0 500 500" style="enable-background:new 0 0 500 500;" xml:space="preserve">
<style type="text/css">
	.st0{fill:#009444;}
</style>
<path class="st0" d="M471,471L471,471c-15.2,15.2-39.9,15.2-55.1,0L29,84.2C13.8,68.9,13.8,44.3,29,29l0,0
	c15.2-15.2,39.9-15.2,55.1,0L471,415.8C486.2,431.1,486.2,455.7,471,471z"/>
<path class="st0" d="M29,471L29,471c15.2,15.2,39.9,15.2,55.1,0L471,84.2c15.2-15.2,15.2-39.9,0-55.1l0,0
	c-15.2-15.2-39.9-15.2-55.1,0L29,415.8C13.8,431.1,13.8,455.7,29,471z"/>
</svg>
