<?xml version="1.0" encoding="utf-8"?>
<svg version="1.1" id="Layer_1" xmlns="http://www.w3.org/2000/svg" xmlns:xlink="http://www.w3.org/1999/xlink" x="0px" y="0px"
	 viewBox="0 0 500 500" style="enable-background:new 0 0 500 500;" xml:space="preserve">
<style type="text/css">
	.st0{fill:#009444;stroke:#009444;stroke-miterlimit:10;}
</style>
<path class="st0" d="M110.9,498.9h-4.3c-11.8,0-21.3-9.5-21.3-21.3V166.2c0-11.8,9.5-21.3,21.3-21.3h4.3c11.8,0,21.3,9.5,21.3,21.3
	v311.4C132.2,489.4,122.7,498.9,110.9,498.9z"/>
<path class="st0" d="M393.3,498.9h-4.3c-11.8,0-21.3-9.5-21.3-21.3V166.2c0-11.8,9.5-21.3,21.3-21.3h4.3c11.8,0,21.3,9.5,21.3,21.3
	v311.4C414.6,489.4,405.1,498.9,393.3,498.9z"/>
<path class="st0" d="M486.4,258.6l-3,3c-8.3,8.3-21.8,8.3-30.1,0L233.1,41.4c-8.3-8.3-8.3-21.8,0-30.1l3-3c8.3-8.3,21.8-8.3,30.1,0
	l220.2,220.2C494.7,236.8,494.7,250.3,486.4,258.6z"/>
<path class="st0" d="M16.6,261.6l-3-3c-8.3-8.3-8.3-21.8,0-30.1L233.8,8.3c8.3-8.3,21.8-8.3,30.1,0l3,3c8.3,8.3,8.3,21.8,0,30.1
	L46.7,261.6C38.4,269.9,24.9,269.9,16.6,261.6z"/>
</svg>
