<svg xmlns="http://www.w3.org/2000/svg" xmlns:xlink="http://www.w3.org/1999/xlink" viewBox="0 0 482.65 500.11"><defs><style>.cls-1{fill:#fff;}.cls-2{fill:url(#linear-gradient);}</style><linearGradient id="linear-gradient" x1="312.75" y1="490" x2="312.75" y2="500" gradientTransform="matrix(1, 0, 0, -1, 0, 500)" gradientUnits="userSpaceOnUse"><stop offset="0.32" stop-color="#fff"/><stop offset="1" stop-color="#fff" stop-opacity="0"/></linearGradient></defs><title>onweb logo white</title><g id="Layer_1" data-name="Layer 1"><g id="Waves"><path class="cls-1" d="M482.65,407.2c-.38-8.37-.52-9.07-4.26-16.57-3.31-6.62-13.67-17.13-20.27-20.5-15.73-6.84-30.21-12.2-47.62-9.48-44.6,7-61,13.05-109,36.05-27.6,13.2-57.3,23-94.4,22.7-47.5-.3-73.9-26.5-115.5-22.1C68,399.8,45.2,404.6,0,434.5c9.3-6.1,50.6-14.3,92.5-19.9,20.8-2.8,43,7.2,62.4,18.6,1,.6,2.1,1.2,3.1,1.8a1.42,1.42,0,0,0,.7.2c18,.2,36.5,1.3,69.3,2.2,22.1.6,83.5,8.5,147.5-12a29.33,29.33,0,0,1,15.5,0,150.39,150.39,0,0,1,57.3,27.9,1.44,1.44,0,0,0,1.4.2,191.13,191.13,0,0,0,19.06-9.5C481.91,436.38,482.5,422.39,482.65,407.2Z" transform="translate(0)"/><path class="cls-1" d="M465.7,470a119.31,119.31,0,0,0-16.8-16.3c-1,.4-1.9.8-2.9,1.2-13.1,5.5-60.6,25.2-133.7,24.6-43.3-.3-68.7-6.6-102-19-16.2-6.1-29.8-12.5-52-25.4-16.3-.2-29.94-2.38-58.5-1-20.37,1-37.3,7.1-50.1,11.2-12.1,3.9-20.7,12.4-20.6,12.5,4.7-3.1,13.9-4.2,20.4-5.8,13.7-3.4,52.4-3.2,71.2-1.1,22.55,2.55,81.74,25.22,108.61,35.53a47.73,47.73,0,0,0,6.42,2c32.12,7.46,88.18,11.46,88.57,11.47a450.19,450.19,0,0,0,73.85-4h.5C428.74,491.85,448.85,488.05,465.7,470Z" transform="translate(0)"/></g><g id="House"><rect class="cls-1" x="44.5" y="190.1" width="26.8" height="221.4"/><polygon class="cls-1" points="285 424.9 258.2 424.9 258.2 241.2 285 259.8 285 424.9"/><polygon class="cls-1" points="44.5 295.4 5.5 295.4 165.1 135.8 183.7 155.1 44.5 295.4"/><polygon class="cls-1" points="285.3 295.4 324.3 295.4 164.7 135.8 146.1 155.1 285.3 295.4"/><rect class="cls-1" x="88.6" y="303.6" width="60.4" height="107.9"/><rect class="cls-1" x="176.4" y="302.8" width="32.3" height="32.3"/><rect class="cls-1" x="215.3" y="302.8" width="32.3" height="32.3"/><rect class="cls-1" x="176.4" y="342.5" width="32.3" height="32.3"/><rect class="cls-1" x="215.3" y="342.5" width="32.3" height="32.3"/></g><g id="Block"><rect class="cls-1" x="215" y="10" width="17.4" height="194.5"/><rect class="cls-1" x="393.1" y="10" width="17.4" height="355.1"/><rect class="cls-2" x="215" width="195.5" height="10"/><rect class="cls-1" x="253.8" y="33.2" width="17.4" height="17.4"/><rect class="cls-1" x="275.9" y="33.2" width="17.4" height="17.4"/><rect class="cls-1" x="253.8" y="55.2" width="17.4" height="17.4"/><rect class="cls-1" x="275.9" y="55.2" width="17.4" height="17.4"/><rect class="cls-1" x="332.8" y="33.2" width="17.4" height="17.4"/><rect class="cls-1" x="354.9" y="33.2" width="17.4" height="17.4"/><rect class="cls-1" x="332.8" y="55.2" width="17.4" height="17.4"/><rect class="cls-1" x="354.9" y="55.2" width="17.4" height="17.4"/><rect class="cls-1" x="253.8" y="102.9" width="17.4" height="17.4"/><rect class="cls-1" x="275.9" y="102.9" width="17.4" height="17.4"/><rect class="cls-1" x="253.8" y="124.9" width="17.4" height="17.4"/><rect class="cls-1" x="275.9" y="124.9" width="17.4" height="17.4"/><rect class="cls-1" x="333.1" y="102.6" width="17.4" height="17.4"/><rect class="cls-1" x="355.3" y="102.6" width="17.4" height="17.4"/><rect class="cls-1" x="333.1" y="124.6" width="17.4" height="17.4"/><rect class="cls-1" x="355.3" y="124.6" width="17.4" height="17.4"/><rect class="cls-1" x="253.8" y="168.2" width="17.4" height="17.4"/><rect class="cls-1" x="275.9" y="168.2" width="17.4" height="17.4"/><rect class="cls-1" x="253.8" y="190.2" width="17.4" height="17.4"/><rect class="cls-1" x="275.9" y="190.2" width="17.4" height="17.4"/><rect class="cls-1" x="333.1" y="168.5" width="17.4" height="17.4"/><rect class="cls-1" x="355.3" y="168.5" width="17.4" height="17.4"/><rect class="cls-1" x="333.1" y="190.5" width="17.4" height="17.4"/><rect class="cls-1" x="355.3" y="190.5" width="17.4" height="17.4"/><rect class="cls-1" x="253.8" y="233.3" width="17.4" height="17.4"/><rect class="cls-1" x="275.9" y="233.3" width="17.4" height="17.4"/><rect class="cls-1" x="275.9" y="255.3" width="17.4" height="17.4"/><rect class="cls-1" x="332.5" y="233.4" width="17.4" height="17.4"/><rect class="cls-1" x="354.6" y="233.4" width="17.4" height="17.4"/><rect class="cls-1" x="332.5" y="255.4" width="17.4" height="17.4"/><rect class="cls-1" x="354.6" y="255.4" width="17.4" height="17.4"/><rect class="cls-1" x="332.8" y="298.2" width="17.4" height="17.4"/><rect class="cls-1" x="355" y="298.2" width="17.4" height="17.4"/><rect class="cls-1" x="332.8" y="320.2" width="17.4" height="17.4"/><rect class="cls-1" x="355" y="320.2" width="17.4" height="17.4"/></g></g></svg>