<?xml version="1.0" encoding="utf-8"?>
<svg version="1.1" id="Layer_1" xmlns="http://www.w3.org/2000/svg" xmlns:xlink="http://www.w3.org/1999/xlink" x="0px" y="0px"
	 viewBox="0 0 500 500" style="enable-background:new 0 0 500 500;" xml:space="preserve">
<style type="text/css">
	.st0{fill:#009444;}
</style>
<path class="st0" d="M260.3,500h-20.6c-4.6,0-8.4-3.7-8.4-8.4V8.4c0-4.6,3.7-8.4,8.4-8.4h20.6c4.6,0,8.4,3.7,8.4,8.4v483.3
	C268.7,496.3,264.9,500,260.3,500z"/>
<path class="st0" d="M500,240.8v18.5c0,5.2-4.2,9.4-9.4,9.4H9.4c-5.2,0-9.4-4.2-9.4-9.4l0-18.5c0-5.2,4.2-9.4,9.4-9.4h481.2
	C495.8,231.3,500,235.6,500,240.8z"/>
</svg>
