<?xml version="1.0" encoding="utf-8"?>
<svg version="1.1" id="Layer_1" xmlns="http://www.w3.org/2000/svg" xmlns:xlink="http://www.w3.org/1999/xlink" x="0px" y="0px"
	 viewBox="0 0 500 500" style="enable-background:new 0 0 500 500;" xml:space="preserve">
<style type="text/css">
	.st0{fill:#FFFFFF;}
</style>
<path class="st0" d="M20.6,218.8h458.8c11.4,0,20.6,9.2,20.6,20.6v21.2c0,11.4-9.2,20.6-20.6,20.6H20.6C9.2,281.2,0,272,0,260.6
	v-21.2C0,228,9.2,218.8,20.6,218.8z"/>
<path class="st0" d="M20.6,62.8h458.8c11.4,0,20.6,9.2,20.6,20.6v21.2c0,11.4-9.2,20.6-20.6,20.6H20.6C9.2,125.2,0,116,0,104.6V83.4
	C0,72,9.2,62.8,20.6,62.8z"/>
<path class="st0" d="M20.6,374.8h458.8c11.4,0,20.6,9.2,20.6,20.6v21.2c0,11.4-9.2,20.6-20.6,20.6H20.6C9.2,437.2,0,428,0,416.6
	v-21.2C0,384,9.2,374.8,20.6,374.8z"/>
</svg>
