<?xml version="1.0" encoding="utf-8"?>
<svg version="1.1" id="Layer_1" xmlns="http://www.w3.org/2000/svg" xmlns:xlink="http://www.w3.org/1999/xlink" x="0px" y="0px"
	 viewBox="0 0 500 500" style="enable-background:new 0 0 500 500;" xml:space="preserve">
<style type="text/css">
	.st0{fill:none;stroke:#000000;stroke-width:40;stroke-miterlimit:10;}
	.st1{stroke:#000000;stroke-width:60;stroke-miterlimit:10;}
</style>
<circle class="st0" cx="250" cy="250" r="176"/>
<circle class="st1" cx="250" cy="250" r="81.9"/>
<g>
	<g>
		<path d="M24.4,272.5c14.9,0,29.8,0,44.7,0c36,0,72,0,108,0c43.4,0,86.8,0,130.2,0c37.5,0,75,0,112.5,0c18.2,0,36.5,0.4,54.8,0
			c0.3,0,0.5,0,0.8,0c11.8,0,23-10.3,22.5-22.5c-0.5-12.2-9.9-22.5-22.5-22.5c-14.9,0-29.8,0-44.7,0c-36,0-72,0-108,0
			c-43.4,0-86.8,0-130.2,0c-37.5,0-75,0-112.5,0c-18.2,0-36.5-0.4-54.8,0c-0.3,0-0.5,0-0.8,0c-11.8,0-23,10.3-22.5,22.5
			C2.4,262.2,11.7,272.5,24.4,272.5L24.4,272.5z"/>
	</g>
</g>
<g>
	<g>
		<path d="M272.4,475.5c0-14.9,0-29.8,0-44.7c0-36,0-72,0-108c0-43.4,0-86.8,0-130.2c0-37.5,0-75,0-112.5c0-18.2,0.4-36.5,0-54.8
			c0-0.3,0-0.5,0-0.8c0-11.8-10.3-23-22.5-22.5c-12.2,0.5-22.5,9.9-22.5,22.5c0,14.9,0,29.8,0,44.7c0,36,0,72,0,108
			c0,43.4,0,86.8,0,130.2c0,37.5,0,75,0,112.5c0,18.2-0.4,36.5,0,54.8c0,0.3,0,0.5,0,0.8c0,11.8,10.3,23,22.5,22.5
			C262,497.5,272.4,488.1,272.4,475.5L272.4,475.5z"/>
	</g>
</g>
</svg>
