<?xml version="1.0" encoding="utf-8"?>
<svg version="1.1" xmlns="http://www.w3.org/2000/svg" xmlns:xlink="http://www.w3.org/1999/xlink" x="0px" y="0px"
	 viewBox="0 0 500 500" style="enable-background:new 0 0 500 500;" xml:space="preserve">
<style type="text/css">
	.st0{fill:url(#SVGID_1_);}
	.st1{fill:#282828;}
	.st2{fill:#6B6B6B;}
	.st3{fill:#48494A;}
	.st4{fill:#C6E9F7;}
	.st5{fill:#9A9B9B;}
	.st6{fill:#424343;}
	.st7{fill:#919191;}
	.st8{fill:#CFCFCE;}
	.st9{fill:#C4C4C4;}
	.st10{fill:url(#SVGID_2_);}
	.st11{fill:url(#SVGID_3_);}
	.st12{fill:url(#SVGID_4_);}
	.st13{fill:url(#SVGID_5_);}
	.st14{fill:#767879;}
	.st15{fill:#97DAF2;}
	.st16{fill:#151515;}
	.st17{fill:#BCBCBC;}
	.st18{fill:#FDB615;}
	.st19{fill:#F9ED24;}
	.st20{fill:#FEBC12;}
</style>
<g id="Layer_2">
	<linearGradient id="SVGID_1_" gradientUnits="userSpaceOnUse" x1="250" y1="2.244815e-08" x2="250" y2="500">
		<stop  offset="0" style="stop-color:#6AE5CC"/>
		<stop  offset="1" style="stop-color:#2A9BC7"/>
	</linearGradient>
	<path class="st0" d="M410,0H90C40.5,0,0,40.5,0,90v320c0,49.5,40.5,90,90,90h320c49.5,0,90-40.5,90-90V90C500,40.5,459.5,0,410,0z"
		/>
</g>
<g id="Layer_1">
	<g>
		<g id="Layer_6">
			<path d="M363.3,395.5h53.6V421c0,4.5-3.6,8.1-8.1,8.1h-37.5c-4.5,0-8.1-3.6-8.1-8.1v-25.5H363.3z"/>
			<path d="M85.6,394.5h53.6V420c0,4.5-3.6,8.1-8.1,8.1H93.6c-4.5,0-8.1-3.6-8.1-8.1L85.6,394.5L85.6,394.5z"/>
			<path class="st1" d="M77.8,401.2h53.6v25.5c0,4.5-3.6,8.1-8.1,8.1H85.8c-4.5,0-8.1-3.6-8.1-8.1L77.8,401.2L77.8,401.2z"/>
			<path class="st1" d="M370.1,400.2h53.6v25.5c0,4.5-3.6,8.1-8.1,8.1h-37.5c-4.5,0-8.1-3.6-8.1-8.1v-25.5H370.1z"/>
		</g>
		<g id="Layer_5">
			<path class="st2" d="M100.9,254.4c-0.3,1.7-3.9-1.3-8.9-1.1c-9,0.4-22.7,2.5-30.6-1.9c-1.9-1-5-2.5-5-5c0-5.3,1.6-10.2,2.3-11.6
				c1.2-2.3,7.2-4.1,11.4-5.1c7.1-1.7,12.4-1.4,16.5-0.7c4.5,0.7,2.4,7.7,4.6,15.9C93.1,251.4,101.3,252.1,100.9,254.4z"/>
			<path class="st3" d="M61.5,251.5c7.9,4.3,21.6,2.3,30.6,1.9c3.3-0.2,5.9,1.1,7.4,1.5h0.9v-1.5c-1.6-1.5-6.5-2.8-8.6-7H56.4v0.1
				C56.4,249,59.6,250.5,61.5,251.5z"/>
			<path class="st2" d="M399.4,253.4c0.3,1.7,3.9-1.3,8.9-1.1c9,0.4,22.7,2.5,30.6-1.9c1.9-1,5-2.5,5-5c0-5.3-1.6-10.2-2.3-11.6
				c-1.2-2.3-7.2-4.1-11.4-5.1c-7.1-1.7-12.4-1.4-16.5-0.7c-4.5,0.7-2.4,7.7-4.6,15.9C407.3,250.4,399,251.1,399.4,253.4z"/>
			<path class="st3" d="M438.9,250.5c-7.9,4.3-21.6,2.3-30.6,1.9c-3.3-0.2-5.9,1.1-7.4,1.5H400v-1.5c1.6-1.5,6.5-2.8,8.6-7H444v0.1
				C443.9,248,440.8,249.5,438.9,250.5z"/>
		</g>
		<g>
			<path class="st2" d="M61.8,280.8c0,0-7.4,37.1-6.9,63.5c0.6,27.5,10.1,61.9,10.1,61.9h372.2c0,0,8-31.7,8-61.9
				c0-32.5-6.9-61.9-6.9-61.9L61.8,280.8z"/>
			<polygon class="st4" points="157.5,325.1 78.4,312.1 78.4,294 137.8,303.7 			"/>
			<polygon class="st4" points="342.5,325.1 421.5,312.1 421.5,294 359.7,304.1 			"/>
			<path class="st5" d="M342.5,391.8l-92.5,7l-92.5-6l19.3-80.2l62.3,6c6.6,0.6,13.3,0.6,19.9,0l64.4-6.1L342.5,391.8z"/>
			<path class="st6" d="M336.7,389.4l-86.8,5l-87.7-5l17.3-72.6l60.1,5.4c6,0.6,11.9,0.6,17.9,0l61.9-5.5L336.7,389.4z"/>
			<polygon class="st6" points="145.2,398.8 76.8,398.8 67.8,340 155.2,359 			"/>
			<polygon class="st6" points="355.2,398.8 423.7,398.8 432.7,340 345.2,359 			"/>
		</g>
		<g id="Layer_3">
			<path class="st7" d="M407.9,251.4H92l-13.8,9.7c-5.4,3.8-9.9,8.7-13.3,14.3l-3.2,5.4c0,0,140.6,20.2,188.2,20.2
				c50.7,0,188.2-18.6,188.2-18.6l-7.4-11.2c-1.8-2.8-4.1-5.3-6.8-7.3L407.9,251.4z"/>
			<path class="st8" d="M389,254.4H111L98.9,263c-4.7,3.3-8.7,7.6-11.7,12.6l-2.8,4.7c0,0,123.7,17.7,165.7,17.7
				c44.6,0,165.7-16.4,165.7-16.4l-6.5-9.9c-1.6-2.5-3.6-4.6-6-6.4L389,254.4z"/>
			<g>
				<path class="st7" d="M113.4,258.1l136.6,5.5l134.7-4.5l31,23.5c0,0-124,16.5-165.7,16.4c-41.7-0.2-165.7-17.7-165.7-17.7
					L113.4,258.1z"/>
			</g>
			<polygon class="st9" points="385.9,260.1 250,264.6 112.2,259.1 111,254.4 250,254.4 389,254.4 			"/>
			
				<linearGradient id="SVGID_2_" gradientUnits="userSpaceOnUse" x1="184.1621" y1="223.8403" x2="184.1621" y2="235.5402" gradientTransform="matrix(1 0 0 -1 0 500)">
				<stop  offset="5.586592e-03" style="stop-color:#363636"/>
				<stop  offset="1" style="stop-color:#787A7B"/>
			</linearGradient>
			<polygon class="st10" points="250,276.2 118.4,268.8 122.9,264.5 250,270.6 			"/>
			
				<linearGradient id="SVGID_3_" gradientUnits="userSpaceOnUse" x1="175.5121" y1="209.8268" x2="175.5121" y2="227.6513" gradientTransform="matrix(1 0 0 -1 0 500)">
				<stop  offset="5.586592e-03" style="stop-color:#363636"/>
				<stop  offset="1" style="stop-color:#787A7B"/>
			</linearGradient>
			<polygon class="st11" points="250,290.2 101.1,276.8 107,272.4 250,282.2 			"/>
			
				<linearGradient id="SVGID_4_" gradientUnits="userSpaceOnUse" x1="315.7621" y1="223.8403" x2="315.7621" y2="236.3402" gradientTransform="matrix(1 0 0 -1 0 500)">
				<stop  offset="5.586592e-03" style="stop-color:#363636"/>
				<stop  offset="1" style="stop-color:#787A7B"/>
			</linearGradient>
			<polygon class="st12" points="250,276.2 381.6,268 377.1,263.7 250,270.6 			"/>
			
				<linearGradient id="SVGID_5_" gradientUnits="userSpaceOnUse" x1="322.4121" y1="209.8268" x2="322.4121" y2="227.4267" gradientTransform="matrix(1 0 0 -1 0 500)">
				<stop  offset="5.586592e-03" style="stop-color:#363636"/>
				<stop  offset="1" style="stop-color:#787A7B"/>
			</linearGradient>
			<polygon class="st13" points="250,290.2 394.9,277 389,272.6 250,282.2 			"/>
		</g>
		<g id="Layer_4">
			<path class="st14" d="M147.7,180.7l82.2-7.9c13.4-1.3,26.8-1.3,40.2,0l83.9,8.1c5.7,0.5,11,2.7,15.5,6.2l0.3,0.3
				c8.8,7,15.8,15.9,20.6,26.1l17.6,37.9H92l17.5-40.4c4-9.3,10.5-17.2,18.8-23l0.4-0.3C134.4,183.8,140.9,181.4,147.7,180.7z"/>
			<path class="st15" d="M158,187.8l74-7.1c12-1.2,24.1-1.2,36.1,0l75.5,7.3c5.1,0.5,9.9,2.4,13.9,5.6l0.3,0.2
				c7.9,6.3,14.3,11.3,18.5,20.5l11.8,31.1H110.8l12.8-33.4c3.6-8.3,9.5-12.5,16.9-17.7l0.3-0.2C145.9,190.6,151.8,188.4,158,187.8z
				"/>
			<polygon class="st4" points="145.2,245.4 202.8,245.4 223.7,181.6 164.2,187.3 			"/>
		</g>
		<g id="Layer_8">
			
				<rect x="291.9" y="106.2" transform="matrix(0.5592 -0.829 0.829 0.5592 -20.9411 333.0182)" class="st16" width="21.5" height="160"/>
			
				<rect x="296.5" y="109.1" transform="matrix(0.5592 -0.829 0.829 0.5592 -16.8037 333.3775)" class="st17" width="17.2" height="146.7"/>
			<path class="st18" d="M322.9,168.1l-10.9-7.3c-1.2-0.8-1.5-2.4-0.7-3.6l61.2-90.8c0.8-1.2,2.4-1.5,3.6-0.7L387,73
				c1.2,0.8,1.5,2.4,0.7,3.6l-61.3,90.8C325.6,168.6,324,168.9,322.9,168.1z"/>
			<polygon class="st19" points="315.8,150.5 330.9,160.7 337.8,191 285.1,155.4 			"/>
			
				<rect x="307.2" y="143.6" transform="matrix(0.5592 -0.829 0.829 0.5592 -8.7862 334.2628)" class="st20" width="5.4" height="63.6"/>
		</g>
	</g>
</g>
</svg>
