<?xml version="1.0" encoding="utf-8"?>
<svg version="1.1" xmlns="http://www.w3.org/2000/svg" xmlns:xlink="http://www.w3.org/1999/xlink" x="0px" y="0px"
	 viewBox="0 0 500 500" style="enable-background:new 0 0 500 500;" xml:space="preserve">
<style type="text/css">
	.st0{fill:#282828;}
	.st1{fill:#6B6B6B;}
	.st2{fill:#48494A;}
	.st3{fill:#C6E9F7;}
	.st4{fill:#9A9B9B;}
	.st5{fill:#424343;}
	.st6{fill:#919191;}
	.st7{fill:#CFCFCE;}
	.st8{fill:#C4C4C4;}
	.st9{fill:url(#SVGID_1_);}
	.st10{fill:url(#SVGID_2_);}
	.st11{fill:url(#SVGID_3_);}
	.st12{fill:url(#SVGID_4_);}
	.st13{fill:#767879;}
	.st14{fill:#97DAF2;}
	.st15{fill:#151515;}
	.st16{fill:#BCBCBC;}
	.st17{fill:#FDB615;}
	.st18{fill:#F9ED24;}
	.st19{fill:#FEBC12;}
</style>
<g id="Layer_6">
	<path d="M363.3,383.1h53.6v25.5c0,4.5-3.6,8.1-8.1,8.1h-37.5c-4.5,0-8.1-3.6-8.1-8.1V383.1z"/>
	<path d="M85.6,382.1h53.6v25.5c0,4.5-3.6,8.1-8.1,8.1H93.6c-4.5,0-8.1-3.6-8.1-8.1V382.1z"/>
	<path class="st0" d="M77.8,388.8h53.6v25.5c0,4.5-3.6,8.1-8.1,8.1H85.8c-4.5,0-8.1-3.6-8.1-8.1V388.8z"/>
	<path class="st0" d="M370.1,387.8h53.6v25.5c0,4.5-3.6,8.1-8.1,8.1h-37.5c-4.5,0-8.1-3.6-8.1-8.1V387.8z"/>
</g>
<g id="Layer_5">
	<path class="st1" d="M100.9,242c-0.3,1.7-3.9-1.3-8.9-1.1c-9,0.4-22.7,2.5-30.6-1.9c-1.9-1-5-2.5-5-5c0-5.3,1.6-10.2,2.3-11.6
		c1.2-2.3,7.2-4.1,11.4-5.1c7.1-1.7,12.4-1.4,16.5-0.7c4.5,0.7,2.4,7.7,4.6,15.9C93.1,239,101.3,239.7,100.9,242z"/>
	<path class="st2" d="M61.5,239.1c7.9,4.3,21.6,2.3,30.6,1.9c3.3-0.2,5.9,1.1,7.4,1.5h0.9V241c-1.6-1.5-6.5-2.8-8.6-7H56.4
		c0,0,0,0.1,0,0.1C56.4,236.6,59.6,238.1,61.5,239.1z"/>
	<path class="st1" d="M399.4,241c0.3,1.7,3.9-1.3,8.9-1.1c9,0.4,22.7,2.5,30.6-1.9c1.9-1,5-2.5,5-5c0-5.3-1.6-10.2-2.3-11.6
		c-1.2-2.3-7.2-4.1-11.4-5.1c-7.1-1.7-12.4-1.4-16.5-0.7c-4.5,0.7-2.4,7.7-4.6,15.9C407.3,238,399,238.7,399.4,241z"/>
	<path class="st2" d="M438.9,238.1c-7.9,4.3-21.6,2.3-30.6,1.9c-3.3-0.2-5.9,1.1-7.4,1.5h-0.9V240c1.6-1.5,6.5-2.8,8.6-7h35.4
		c0,0,0,0.1,0,0.1C443.9,235.6,440.8,237.1,438.9,238.1z"/>
</g>
<g id="Layer_2">
	<path class="st1" d="M61.8,268.4c0,0-7.4,37.1-6.9,63.5c0.6,27.5,10.1,61.9,10.1,61.9h372.2c0,0,8-31.7,8-61.9
		c0-32.5-6.9-61.9-6.9-61.9L61.8,268.4z"/>
	<polygon class="st3" points="157.5,312.7 78.4,299.7 78.4,281.6 137.8,291.3 	"/>
	<polygon class="st3" points="342.5,312.7 421.5,299.7 421.5,281.6 359.7,291.7 	"/>
	<path class="st4" d="M342.5,379.4l-92.5,7l-92.5-6l19.3-80.2l62.3,6c6.6,0.6,13.3,0.6,19.9,0l64.4-6.1L342.5,379.4z"/>
	<path class="st5" d="M336.7,377l-86.8,5l-87.7-5l17.3-72.6l60.1,5.4c6,0.6,11.9,0.6,17.9,0l61.9-5.5L336.7,377z"/>
	<polygon class="st5" points="145.2,386.4 76.8,386.4 67.8,327.6 155.2,346.6 	"/>
	<polygon class="st5" points="355.2,386.4 423.7,386.4 432.7,327.6 345.2,346.6 	"/>
</g>
<g id="Layer_3">
	<path class="st6" d="M407.9,239H92l-13.8,9.7c-5.4,3.8-9.9,8.7-13.3,14.3l-3.2,5.4c0,0,140.6,20.2,188.2,20.2
		c50.7,0,188.2-18.6,188.2-18.6l-7.4-11.2c-1.8-2.8-4.1-5.3-6.8-7.3L407.9,239z"/>
	<path class="st7" d="M389,242H111l-12.1,8.6c-4.7,3.3-8.7,7.6-11.7,12.6l-2.8,4.7c0,0,123.7,17.7,165.7,17.7
		c44.6,0,165.7-16.4,165.7-16.4l-6.5-9.9c-1.6-2.5-3.6-4.6-6-6.4L389,242z"/>
	<g>
		<path class="st6" d="M113.4,245.7l136.6,5.5l134.7-4.5l31,23.5c0,0-124,16.5-165.7,16.4c-41.7-0.2-165.7-17.7-165.7-17.7
			L113.4,245.7z"/>
	</g>
	<polygon class="st8" points="385.9,247.7 250,252.2 112.2,246.7 111,242 250,242 389,242 	"/>
	<linearGradient id="SVGID_1_" gradientUnits="userSpaceOnUse" x1="184.1814" y1="263.7865" x2="184.1814" y2="252.0912">
		<stop  offset="5.586592e-03" style="stop-color:#363636"/>
		<stop  offset="1" style="stop-color:#787A7B"/>
	</linearGradient>
	<polygon class="st9" points="250,263.8 118.4,256.4 122.9,252.1 250,258.2 	"/>
	<linearGradient id="SVGID_2_" gradientUnits="userSpaceOnUse" x1="175.5195" y1="277.8026" x2="175.5195" y2="259.9781">
		<stop  offset="5.586592e-03" style="stop-color:#363636"/>
		<stop  offset="1" style="stop-color:#787A7B"/>
	</linearGradient>
	<polygon class="st10" points="250,277.8 101.1,264.4 107,260 250,269.8 	"/>
	<linearGradient id="SVGID_3_" gradientUnits="userSpaceOnUse" x1="315.8056" y1="263.7865" x2="315.8056" y2="251.2988">
		<stop  offset="5.586592e-03" style="stop-color:#363636"/>
		<stop  offset="1" style="stop-color:#787A7B"/>
	</linearGradient>
	<polygon class="st11" points="250,263.8 381.6,255.6 377.1,251.3 250,258.2 	"/>
	<linearGradient id="SVGID_4_" gradientUnits="userSpaceOnUse" x1="322.4514" y1="277.8026" x2="322.4514" y2="260.1859">
		<stop  offset="5.586592e-03" style="stop-color:#363636"/>
		<stop  offset="1" style="stop-color:#787A7B"/>
	</linearGradient>
	<polygon class="st12" points="250,277.8 394.9,264.6 389,260.2 250,269.8 	"/>
</g>
<g id="Layer_4">
	<path class="st13" d="M147.7,168.3l82.2-7.9c13.4-1.3,26.8-1.3,40.2,0l83.9,8.1c5.7,0.5,11,2.7,15.5,6.2l0.3,0.3
		c8.8,7,15.8,15.9,20.6,26.1l17.6,37.9H92l17.5-40.4c4-9.3,10.5-17.2,18.8-23l0.4-0.3C134.4,171.4,140.9,169,147.7,168.3z"/>
	<path class="st14" d="M158,175.4l74-7.1c12-1.2,24.1-1.2,36.1,0l75.5,7.3c5.1,0.5,9.9,2.4,13.9,5.6l0.3,0.2
		c7.9,6.3,14.3,11.3,18.5,20.5l11.8,31.1H110.8l12.8-33.4c3.6-8.3,9.5-12.5,16.9-17.7l0.3-0.2C145.9,178.2,151.8,176,158,175.4z"/>
	<polygon class="st3" points="145.2,233 202.8,233 223.7,169.2 164.2,174.9 	"/>
</g>
<g id="Layer_8">
	
		<rect x="222.7" y="163" transform="matrix(-0.829 -0.5592 0.5592 -0.829 456.5129 487.1373)" class="st15" width="160" height="21.5"/>
	
		<rect x="231.8" y="161.5" transform="matrix(-0.829 -0.5592 0.5592 -0.829 462.9916 481.7704)" class="st16" width="146.7" height="17.2"/>
	<path class="st17" d="M322.9,155.7l-10.9-7.3c-1.2-0.8-1.5-2.4-0.7-3.6L372.5,54c0.8-1.2,2.4-1.5,3.6-0.7l10.9,7.3
		c1.2,0.8,1.5,2.4,0.7,3.6L326.4,155C325.6,156.2,324,156.5,322.9,155.7z"/>
	<polygon class="st18" points="315.8,138.1 330.9,148.3 337.8,178.6 285.1,143 	"/>
	
		<rect x="278.2" y="160.3" transform="matrix(-0.829 -0.5592 0.5592 -0.829 475.8238 471.4996)" class="st19" width="63.6" height="5.4"/>
</g>
</svg>
