<?xml version="1.0" encoding="utf-8"?>
<svg version="1.1" xmlns="http://www.w3.org/2000/svg" xmlns:xlink="http://www.w3.org/1999/xlink" x="0px" y="0px"
	 viewBox="0 0 500 500" style="enable-background:new 0 0 500 500;" xml:space="preserve">
<style type="text/css">
	.st0{fill:#E2E2E2;}
	.st1{fill:#666766;}
	.st2{fill:#C6C6C5;}
	.st3{fill:#BCBCBC;}
</style>
<g id="Layer_2">
	<path class="st0" d="M340.5,163.1c0,0,13,13-4.2,30.2L76.1,453.5c-17.2,17.2-28.8,5.7-28.8,5.7c-9.5-9.5-6.7-22.1,2.8-31.7
		l260.2-260.2C319.8,157.8,331,153.5,340.5,163.1z"/>
	<path class="st0" d="M466.1,119.6c3-20.8-7.9-32-7.9-32c-9.8,9.8-52.7,58.3-62.8,48.2c0,0-43.7-42.9-61.5-60.7
		c0,0-10.3,12.3-16,21.7c-14.9,24.7,15.4,48.3-9.9,73.6c-2.4,2.4-6.2,7.9-3,15.5c3.4,8,10.9,11.3,11.6,11.6c8,3.4,13.5-1.2,16.3-3
		c37.9-23.6,56.6-7.7,67.8-7.7c11.2,0,30.8-10.7,42.4-21.9C454.7,153.8,462.8,142.4,466.1,119.6z M353.9,138.7L332,116.8l13.9-13.9
		l21.9,21.9L353.9,138.7z"/>
	
		<rect x="343.5" y="105.3" transform="matrix(0.7071 -0.7071 0.7071 0.7071 17.0839 282.7837)" class="st1" width="12.8" height="31"/>
	<path class="st2" d="M330.6,172.9c0,0,10.2,7.3-7.1,24.6L77.5,443.6c-17.2,17.2-24.6,9.9-24.6,9.9c-9.5-9.5-2.5-17.9,7.1-27.4
		l243.3-243.3C312.8,173.3,321.1,163.4,330.6,172.9z"/>
</g>
<g id="Layer_3">
	<path class="st3" d="M420.7,50L408,44.7c-8.5-3.6-15.8-4.2-25-3.4c-8.6,0.7-17.6,4.5-25.6,10.4L334,75.1l30.8,30.8L420.7,50z"/>
</g>
</svg>
