<?xml version="1.0" encoding="utf-8"?>
<svg version="1.1" xmlns="http://www.w3.org/2000/svg" xmlns:xlink="http://www.w3.org/1999/xlink" x="0px" y="0px"
	 viewBox="0 0 500 500" style="enable-background:new 0 0 500 500;" xml:space="preserve">
<style type="text/css">
	.st0{fill:url(#SVGID_1_);}
	.st1{fill:#E2E2E2;}
	.st2{fill:#666766;}
	.st3{fill:#C6C6C5;}
	.st4{fill:#BCBCBC;}
</style>
<g id="Layer_2">
	<linearGradient id="SVGID_1_" gradientUnits="userSpaceOnUse" x1="250" y1="0" x2="250" y2="500">
		<stop  offset="4.469274e-02" style="stop-color:#660066"/>
		<stop  offset="1" style="stop-color:#800080"/>
	</linearGradient>
	<path class="st0" d="M410,500H90c-49.5,0-90-40.5-90-90V90C0,40.5,40.5,0,90,0h320c49.5,0,90,40.5,90,90v320
		C500,459.5,459.5,500,410,500z"/>
</g>
<g id="Layer_1">
	<g>
		<g>
			<path class="st1" d="M332.2,165.6c0,0,12.4,12.4-4,28.7L81,441.4c-16.3,16.3-27.4,5.4-27.4,5.4c-9-9-6.4-21,2.7-30.1l247.2-247.2
				C312.5,160.5,323.1,156.4,332.2,165.6z"/>
			<path class="st1" d="M451.5,124.2c2.9-19.8-7.5-30.4-7.5-30.4c-9.3,9.3-50.1,55.4-59.7,45.8c0,0-41.5-40.8-58.4-57.7
				c0,0-9.8,11.7-15.2,20.6c-14.2,23.5,14.6,45.9-9.4,69.9c-2.3,2.3-5.9,7.5-2.8,14.7c3.2,7.6,10.4,10.7,11,11
				c7.6,3.2,12.8-1.1,15.5-2.8c36-22.4,53.8-7.3,64.4-7.3c10.6,0,29.3-10.2,40.3-20.8C440.6,156.7,448.3,145.9,451.5,124.2z
				 M344.9,142.4l-20.8-20.8l13.2-13.2l20.8,20.8L344.9,142.4z"/>
			
				<rect x="335" y="110.6" transform="matrix(0.7071 -0.7071 0.7071 0.7071 11.2551 277.9134)" class="st2" width="12.2" height="29.4"/>
			<path class="st3" d="M322.7,174.9c0,0,9.7,6.9-6.7,23.4L82.3,432c-16.3,16.3-23.4,9.4-23.4,9.4c-9-9-2.4-17,6.7-26l231.1-231.1
				C305.8,175.3,313.7,165.9,322.7,174.9z"/>
		</g>
		<g id="Layer_3">
			<path class="st4" d="M408.3,58.1l-12.1-5c-8.1-3.4-15-4-23.8-3.2c-8.2,0.7-16.7,4.3-24.3,9.9L326,82l29.3,29.3L408.3,58.1z"/>
		</g>
	</g>
</g>
</svg>
