<?xml version="1.0" encoding="utf-8"?>
<!-- Generator: Adobe Illustrator 23.0.1, SVG Export Plug-In . SVG Version: 6.00 Build 0)  -->
<svg version="1.1" id="Layer_1" xmlns="http://www.w3.org/2000/svg" xmlns:xlink="http://www.w3.org/1999/xlink" x="0px" y="0px"
	 viewBox="0 0 500 500" style="enable-background:new 0 0 500 500;" xml:space="preserve">
<style type="text/css">
	.st0{fill:url(#SVGID_1_);}
	.st1{fill:url(#SVGID_2_);}
	.st2{fill:url(#SVGID_3_);}
	.st3{fill:#905D1E;}
	.st4{fill:#3F3422;}
	.st5{fill:none;}
	.st6{fill:#D9C7BE;}
	.st7{fill:#FFF1C0;}
	.st8{fill:#C5A990;}
	.st9{fill:#F1CFA7;}
	.st10{fill:url(#SVGID_4_);}
	.st11{fill:#FDE6D5;}
	.st12{fill:url(#SVGID_5_);}
	.st13{fill:#876454;}
	.st14{fill:#35D400;}
	.st15{fill:none;stroke:#35D400;stroke-width:5;stroke-miterlimit:10;}
	.st16{fill:#634937;}
	.st17{fill:#FFFFFF;}
	.st18{fill:#7C4014;}
	.st19{fill:#351E02;}
	.st20{fill:url(#SVGID_6_);}
	.st21{fill:#4F3419;}
</style>
<g>
	<linearGradient id="SVGID_1_" gradientUnits="userSpaceOnUse" x1="250" y1="0" x2="250" y2="500">
		<stop  offset="4.469274e-02" style="stop-color:#BD99BA"/>
		<stop  offset="1" style="stop-color:#69A5BB"/>
	</linearGradient>
	<path class="st0" d="M410,500H90c-49.5,0-90-40.5-90-90V90C0,40.5,40.5,0,90,0h320c49.5,0,90,40.5,90,90v320
		C500,459.5,459.5,500,410,500z"/>
</g>
<radialGradient id="SVGID_2_" cx="122.7204" cy="200.0286" r="418.5931" gradientTransform="matrix(1 0 0 -1 0 500)" gradientUnits="userSpaceOnUse">
	<stop  offset="0.193" style="stop-color:#DBCCB5"/>
	<stop  offset="0.8006" style="stop-color:#DFC09C"/>
</radialGradient>
<path class="st1" d="M96.6,466L96.6,466c-2.4-3.6-5.6-6.6-9.4-8.7l0,0c-4.2-2.4-7.4-6.4-8.8-11l0,0c-0.7-2.2-1-4.5-0.9-6.8l0.3-8.3
	c0-0.3,0.1-0.6,0.2-0.9l3-8c0.2-0.5,0.2-1,0.1-1.5c-0.4-3.1-0.5-14.1-0.4-18c0-0.7,0.3-1.4,0.9-2c3.2-3.1,15-14.7,17.5-17.1
	c0.3-0.3,0.4-0.5,0.6-0.9c1.2-2.4,8.7-10,11.7-13c0.8-0.8,1-1.9,0.7-2.9l-4.3-14.4c-0.4-1.2-1.5-2.1-2.8-2.1H94.3
	c-0.2,0-0.4,0-0.5-0.1c-5.4-1.1-10.1,0.6-13,5.8c-7.1,12.4-7.2,23.7-18.1,29.4c-0.1,0.1-0.2,0.1-0.3,0.2l-8.2,6.1
	c-6.4,4.8-9.8,12.5-9.2,20.4l0.4,5.1c0,0.1,0,0.3,0,0.4c-0.2,3.4-0.2,3.4,1.3,19.3c0,0.3,0.2,0.6,0.3,0.9c0.8,4.1,5.5,28.9,6.3,33.6
	c0.1,0.6,0.4,1.1,0.8,1.5c1.7,1.8,4.1,2.9,6.7,2.9l30.5,0.5c0.4,0,0.8-0.1,1.1-0.2l1.1-0.4C97.5,474.4,99,469.6,96.6,466z"/>
<radialGradient id="SVGID_3_" cx="348.3146" cy="203.8179" r="426.4796" gradientTransform="matrix(1 0 0 -1 0 500)" gradientUnits="userSpaceOnUse">
	<stop  offset="0.193" style="stop-color:#DBCCB5"/>
	<stop  offset="0.8006" style="stop-color:#DFC09C"/>
</radialGradient>
<path class="st2" d="M335.9,466L335.9,466c-1.6-2.3-3.5-4.4-5.7-6.2c-2-1.6-4.6-2.5-7.2-2.5h-1.5c-1.6-0.9-3.4-3.4-3.8-5l-2-6
	c-0.7-2.2-4.3-12.8-4.2-15.1v-5.9c0-0.3-0.1-11.6,0-11.9l0.8-16.1c0.2-0.5,5.2-5,5.1-5.5c-0.4-3.1,2.5,8.9,2.6,5
	c0-0.7,6.3-9.4,6.9-10c3.2-3.1,9-0.7,11.5-3.1c0.3-0.3,0.4-0.5,0.6-0.9c1.2-2.4-20.6-9.8-17.6-12.7c0.8-0.8,1-1.9,0.7-2.9l17-14.7
	c-0.4-1.2-0.5-2.1-1.8-2.1h-3.7c-0.2,0-0.4,0-0.5-0.1c-5.4-1.1-10.1,0.6-13,5.8c-7.1,12.4-7.2,23.7-18.1,29.4
	c-0.1,0.1-0.2,0.1-0.4,0.2l-8.2,6.1c-6.4,4.8-22.7-12-22.1-4.1l0.8,18.6c0,0.1,0,11.2,0,11.4c-0.1,2.1-0.1-2.4-0.1-1
	c0.3,9.6,3.1,18.9,7.8,27.2c0.1,0.2,0.2,0.3,0.2,0.3c0.8,4.2,11.7,22.7,12.6,27.4c0.1,0.6,0.4,1.1,0.8,1.5c1.7,1.8,4.1,2.9,6.6,2.9
	l18.5,0.5c0.3,0,4.1,0.5,9.4,0.7c2.4,0.1,4.8-0.3,7-1.1l0.9-0.3C339.8,474.4,338.2,469.6,335.9,466z"/>
<g>
	<path class="st3" d="M442.4,283.1c-0.3-0.1-0.6-0.2-1-0.3C441.1,282.7,441.6,282.9,442.4,283.1z"/>
	<path class="st4" d="M229,337.8c52.3,0,109.4-16.7,109.4-52.8c0-9.9,10.4-40.3-23.7-40.3l-8.2,5.2c-9.8,6.2-20.6,10.9-31.8,13.9
		l-10.1,2.7c-10.6,4.1-21.9,3.4-33.2,3.5l-23.3,0.3l-40.8,0.8l-32.9,3.3C94.1,308.2,177.6,337.8,229,337.8z"/>
</g>
<g>
	<path class="st5" d="M442.4,283.1c-0.3-0.1-0.6-0.2-1-0.3C441.1,282.7,441.6,282.9,442.4,283.1z"/>
	<path class="st6" d="M107.3,208.4c0.2-0.7,0.4-1.4,0.6-2.1l5.9-20.6l5.8-24.7c0.2-1-1-1.7-1.8-1l-4.5,4.5
		c-7.7,7.7-13.9,16.7-18.3,26.6C100.3,193.5,104.8,199.9,107.3,208.4z"/>
	<path class="st4" d="M90.4,259.5c4.1,0,7.9-2.3,11-6.2c0-0.2,0-0.4,0-0.6c0-15,2-29.9,5.9-44.4c-2.5-8.5-7-14.9-12.3-17.3
		c-1,2.2-1.8,4.3-2.6,6.6c-6.5,18.5-10.4,37.7-11.5,57.2C83.6,257.9,86.9,259.5,90.4,259.5z"/>
</g>
<g>
	<path class="st7" d="M442.4,283.1c-0.3-0.1-0.6-0.2-1-0.3C441.1,282.7,441.6,282.9,442.4,283.1z"/>
	<path class="st8" d="M359.2,297.6l43,8l16.5,2.4c2.1,0.3,4.3,0.2,6.4-0.2l5.5-1.2c2.5-0.6,4.8-1.8,6.6-3.6l2.7-2.7
		c0.6-0.6,1.1-1.2,1.5-1.9l2.3-6.9c0.2-0.5,1.9-1.2-1.4-2.2c-0.8-0.2-2.9,1-3,0.7c-0.2-0.9,4-2.4,4.3-2.3c3.7-1,2.9-3.6,4-5
		c2.9-3.7,5.5-8.3,5.1-12.7l-0.4-4.5c1.2-3.9,0.2-8.1-2.7-11l-1.4-1.4c-2.2-2.8-3.2-2.8-5-3.6l-2.5-1.1l-2-1
		c-6.7-3.3-6.7-3.3-10.2-6.3l-2-1.8l-1.1-4.1c-1.6-6.1-4.9-11.7-9.3-16.2l-0.3-0.3c-6.7-6.7-15.2-11.5-24.4-13.9l-8.6-2.2
		c-3.4-0.9-6.9-1.2-10.4-1l-9.1,0.4c-39.7,15.6-30.1,39.2-24.1,64.9c3.4,14.6,12.2,20.4,18.5,31.7
		C358.1,297.8,358.6,297.5,359.2,297.6z"/>
</g>
<path class="st9" d="M301.9,404.6l18.2,6.7c2,0.7,3.8,1.8,5.3,3.3l18.4,17.1l11,14.4l7.6,1.5l8.2,3.3c3.2,1.3,6.7,1.6,10.1,0.9
	l2.7-0.6c2.9-0.6,5.5-2,7.6-4.1l0.3-0.3c1.1-1.1,1.5-2.8,1-4.4c-0.9-2.5-2.3-4.8-4.1-6.8l-12-13c-1.1-1.2-2.1-2.5-2.9-4l-15.7-27.7
	c-2.3-4.1-5.5-7.6-9.3-10.3l-15-10.8l1-1.4c-24.8,3.7-44.4,17.4-50.1,35l3.2-0.5C292.3,402.4,297.3,402.9,301.9,404.6z"/>
<g>
	<path class="st3" d="M371.4,201.4l-8,0.4c-4,0.2-8,1.2-11.7,2.9l-6.8,3.2c-3.5,1.7-6.4,4.2-8.6,7.5l-1.3,2
		c-4,6.2-9.4,20.6-15.7,24.4l-4.7,2.9c5.8,8.4,9,17.8,9,27.8c0,36.1-42.4,65.3-94.7,65.3c-51.4,0-93.2-28.2-94.7-63.4l-23.9,2.4
		l-4.6-5c-4.9-4.9-4.4-11.5-4.4-18.5c-3.1,3.9-6.9,6.2-11,6.2c-3.5,0-6.7-1.7-9.5-4.6c-0.2,4-0.4,8.1-0.4,12.1l0,0
		c0,1,0.1,1.9,0.3,2.9l3.1,14.8c0.3,1.5,0.1,3.1-0.7,4.5l-1.6,2.8c-7.3,12.5-12.4,26.1-15.1,40.4l0,0c-0.7,3.8-0.5,7.8,0.8,11.5
		l4.8,14.5c2.8-1,5.8-1.8,8.9-2.2c33.8-4.4,62.2,12.5,111.2,12.5s58.3-11.3,92.1-21.6c22.4-6.8,46.8-1.9,60.6,2.2l7.2-26.4l5.7-24.3
		c0-0.1,0.1-0.2,0.1-0.3c-6.3-11.3-10.1-25.1-10.1-40.1C347.7,234.5,357.1,213.6,371.4,201.4z"/>
	<path class="st3" d="M284.2,347.1c-33.8,10.3-43.1,21.6-92.1,21.6s-77.4-16.9-111.2-12.5c-3.1,0.4-6.1,1.2-8.9,2.2l0.7,2.2
		c0.9,2.6,1.2,5.3,1,8l-2.4,35.5c10.9-5.9,24.6-9.4,39.3-9.4c6,0,11.8,0.6,17.3,1.7l0.2-0.3c0.2-0.3,0.5-0.7,0.7-1.1l3.1-6.1l5,2.4
		c3.6,1.7,7.4,2.9,11.3,3.4l30.5,4c1.1,0.1,2.2,0.2,3.3,0.3l49.5,2.4c2.7,0.1,5.3,0.4,7.9,0.8l20.3,3.2c4,0.6,8.2,0.7,12.2,0l12-1.9
		c5.8-17.5,25.4-31.3,50.1-35l4.8-6.9c2.5-3.5,4.3-7.5,5.4-11.6l0.2-0.8C330.9,345.2,306.6,340.2,284.2,347.1z"/>
	
		<linearGradient id="SVGID_4_" gradientUnits="userSpaceOnUse" x1="29.9946" y1="124.2194" x2="356.1881" y2="124.2194" gradientTransform="matrix(1 0 0 -1 0 500)">
		<stop  offset="0.193" style="stop-color:#FDE6D5"/>
		<stop  offset="0.8006" style="stop-color:#F1CFA7"/>
	</linearGradient>
	<path class="st10" d="M284.2,348.1c-33.8,10.3-43.1,21.6-92.1,21.6s-77.4-16.9-111.2-12.5c-3.1,0.4-6.1,1.2-8.9,2.2l-0.3,2.2
		c0.9,2.6,1.2,5.3,1,8l-1.4,35.5c10.9-5.9,24.6-9.4,39.3-9.4c6,0,11.8,0.6,17.3,1.7l0.2-0.3c0.2-0.3,0.5-0.7,0.7-1.1l3.1-6.1l5,2.4
		c3.6,1.7,7.4,2.9,11.3,3.4l30.5,4c1.1,0.1,2.2,0.2,3.3,0.3l49.5,2.4c2.7,0.1,5.3,0.4,7.9,0.8l20.3,3.2c4,0.6,8.2,0.7,12.2,0l13-2.9
		c5.8-17.5,24.4-30.3,49.1-34l4.8-6.9c2.5-3.5,4.3-7.5,5.4-11.6l0.2-0.8C330.9,346.2,306.6,341.2,284.2,348.1z"/>
	<path class="st11" d="M110.7,394.7c-14.8,0-28.4,3.5-39.3,9.4l-0.2,3l48,1.4l8.9-12.1C122.5,395.3,116.7,394.7,110.7,394.7z"/>
	
		<linearGradient id="SVGID_5_" gradientUnits="userSpaceOnUse" x1="8.7505" y1="63.5001" x2="495.9654" y2="63.5001" gradientTransform="matrix(1 0 0 -1 0 500)">
		<stop  offset="0.193" style="stop-color:#FDE6D5"/>
		<stop  offset="0.8006" style="stop-color:#F1CFA7"/>
	</linearGradient>
	<path class="st12" d="M154.4,470.5L152,467c-2.2-3.2-5.1-5.8-8.5-7.7l-7.2-4l-9-4.8l-6.1-5.7l-6.8-15.1c-0.7-1.5-0.9-3.2-0.7-4.9
		l1.1-8c0.3-2.1,1.1-4,2.3-5.7l1.9-2.6l8.9-12.1c-5.5-1.1-11.3-1.7-17.3-1.7c-14.8,0-28.4,3.5-39.3,9.4l-0.2,3l-0.9,13.5
		c-0.2,3.2,0.8,6.3,2.8,8.8l36.4,45.4c1.8,2.2,4.5,3.5,7.4,3.5h31.1l5-2.1C155,475.3,155.8,472.5,154.4,470.5z"/>
</g>
<path class="st13" d="M358.6,222.3c0-8.9,8.4-21,13.9-21c27,0,45.9,15.2,49.6,25.1c3.1,8.3,9,23-10.6,23
	C377.7,249.4,358.6,231.2,358.6,222.3z"/>
<path class="st14" d="M359,302.8l-3.4,2.7c-2,1.6-5,1.2-6.6-0.8l-41.2-52.8c-1.6-2-1.2-5,0.8-6.6l3.4-2.7c2-1.6,5-1.2,6.6,0.8
	l41.2,52.8C361.4,298.2,361,301.2,359,302.8z"/>
<path class="st15" d="M314.7,247.7c0,0-37.3-6.3-102.1-34.4c-50.9-22.1-57.5-34.5-93.1-75.9C69.5,79,44.9,21.7,44.9,21.7"/>
<g>
	<path class="st16" d="M440.4,288.8c4.8,0,5.3-2.3,5.3-2.3s-10,3.5-16.6,2.3c-7-1.2-11.1-4-22-3.5c7.7,0.7,12.1,4.1,20,6.1
		c11.8,3,17.3-1,17.3-1C444.5,289.8,443.2,289,440.4,288.8"/>
</g>
<g>
	<path d="M446.8,261.6c5,4.2,6,9,6,9s-0.4-4.8,0.7-6.7c3.3-4.5,0.6-6.5-2-8.9c-0.5-0.5-1.2-0.9-1.9-1l-1-0.3c-1.6,0-2,0.4-2.5,1
		c-0.4,0.5-0.7,1.1-0.7,1.8l-0.1,1C445.4,258.9,445.1,260.2,446.8,261.6z"/>
</g>
<g>
	<path class="st17" d="M448.3,255c0.6,0.1,1.3,0.3,1.9,0.5s1.2,0.5,1.8,0.8c0.3,0.2,0.5,0.5,0.8,0.7c0.2,0.2,0.4,0.5,0.6,0.7
		c0.4,0.5,0.7,1.1,0.9,1.8c-0.6-0.4-1.1-0.7-1.5-1.2c-0.2-0.2-0.5-0.4-0.7-0.6s-0.4-0.5-0.6-0.6c-0.5-0.3-1-0.7-1.5-1
		C449.3,255.8,448.8,255.4,448.3,255z"/>
</g>
<path class="st18" d="M413.8,235.8c0,2.3-1,3.8-1.3,4.1c-1.4,2-3.5,2.7-4.3,2.9s-2.8,0.8-5.2,0c-2.9-1-3.5-2.1-4.5-3.1
	c-0.1-0.1-0.9-1,0-2.5l0,0c0,0,1.8-1.4,3.1-2.4c1.7-1.2,3.2-2,4-2.4c3.1-1.6,4.7-2.4,5.8-2C413.8,231.4,413.8,235.5,413.8,235.8z"/>
<circle cx="407.5" cy="236.8" r="3.4"/>
<g>
	<path class="st19" d="M413.7,222.4c-2.8,0.3-5.5,0.6-8.2,1s-5.4,0.8-7.9,1.5c-0.6,0.2-1.2,0.4-1.8,0.6c-0.6,0.2-1.1,0.5-1.7,0.8
		c-1.1,0.6-2.1,1.4-3.1,2.2c-2,1.6-3.7,3.7-5.7,5.8c0.2-1.4,0.7-2.8,1.3-4.1c0.6-1.3,1.4-2.6,2.4-3.7c1-1.1,2.2-2.1,3.5-2.8
		c0.6-0.4,1.4-0.7,2.1-1s1.4-0.5,2.2-0.6c2.9-0.6,5.7-0.8,8.5-0.7C408.1,221.6,410.9,221.8,413.7,222.4z"/>
</g>
<circle class="st17" cx="409.4" cy="233.8" r="1.5"/>
<radialGradient id="SVGID_6_" cx="441.9689" cy="226.2383" r="13.4826" fx="450.375" fy="228.3677" gradientTransform="matrix(0.9979 -6.402095e-02 -6.592931e-02 -1.0277 15.8225 534.5632)" gradientUnits="userSpaceOnUse">
	<stop  offset="0" style="stop-color:#DFC8B1"/>
	<stop  offset="3.838015e-02" style="stop-color:#DEC6AF"/>
	<stop  offset="0.6278" style="stop-color:#CCB198"/>
	<stop  offset="1" style="stop-color:#C5A990"/>
</radialGradient>
<path class="st20" d="M445.7,286.4c-1.7,0.9-6.5,1.3-10.9,0.6c-6.5-1-7-3.4-10.7-6.3c-5.3-4.2-4.1-12-3.8-14.3
	c0.7-5,11.1-3.7,15.6-5.5c2-0.8,5.1-1.3,12,2c3.5,1.7,4.6,6.8,5,7.7C454.2,273.1,446.8,285.9,445.7,286.4z"/>
<path class="st21" d="M380.2,218.3c10.1,15.6,10.5,64.4,9.3,75.7c-0.8,7.6-12.2,13-12.2,13c-8.4,6.3-16.7,2.7-25.6,2.7
	c-8.6,0-2.7-6.4-14-15.2c-9.7-7.6-10-9.1-11.2-12.7c-1.2-3.8-1.4-5.3-1-14.7c0.6-14.3,3.1-15.1,4-22.1c0.5-3.8,2-15.5,9.4-22.8
	C348.9,212.4,372.6,206.6,380.2,218.3z"/>
</svg>
