<?xml version="1.0" encoding="utf-8"?>
<svg version="1.1" xmlns="http://www.w3.org/2000/svg" xmlns:xlink="http://www.w3.org/1999/xlink" x="0px" y="0px"
	 viewBox="0 0 500 500" style="enable-background:new 0 0 500 500;" xml:space="preserve">
<style type="text/css">
	.st0{fill:#FFFFFF;stroke:#000000;stroke-miterlimit:10;}
	.st1{fill:#FFFFFF;}
	.st2{fill:#414042;}
	.st3{fill:#6D6E71;}
	.st4{fill:#58595B;}
	.st5{fill:#212121;}
	.st6{fill:#566987;}
	.st7{fill:#EE2827;}
	.st8{fill:#CE2729;}
	.st9{fill:#B7272E;}
	.st10{fill:#AA1F23;}
	.st11{fill:#E04C58;}
	.st12{fill:#556987;}
</style>
<g id="Layer_2">
	<path class="st0" d="M281.6,231.9"/>
	<g>
		<line class="st1" x1="371.3" y1="99.3" x2="267.6" y2="252.5"/>
		<g>
			<path class="st2" d="M364.8,95.5c-11.7,17.3-23.4,34.5-35,51.8c-18.6,27.5-37.2,55-55.8,82.5c-4.3,6.3-8.5,12.6-12.8,18.9
				c-5.4,8,7.6,15.5,13,7.6c11.7-17.3,23.4-34.5,35-51.8c18.6-27.5,37.2-55,55.8-82.5c4.3-6.3,8.5-12.6,12.8-18.9
				C383.2,95.1,370.2,87.6,364.8,95.5L364.8,95.5z"/>
		</g>
	</g>
	<g>
		<line class="st1" x1="462.9" y1="128.4" x2="326.4" y2="330.2"/>
		<g>
			<path class="st3" d="M456.5,124.6c-15.4,22.8-30.8,45.6-46.2,68.3c-24.5,36.1-48.9,72.3-73.4,108.4c-5.6,8.3-11.3,16.7-16.9,25
				c-5.4,8,7.6,15.5,13,7.6c15.4-22.8,30.8-45.6,46.2-68.3c24.5-36.1,48.9-72.3,73.4-108.4c5.6-8.3,11.3-16.7,16.9-25
				C474.8,124.2,461.9,116.7,456.5,124.6L456.5,124.6z"/>
		</g>
	</g>
	<g>
		<g>
			<path class="st4" d="M369.3,106.5c26.7,8.5,53.5,17,80.2,25.5c3.8,1.2,7.6,2.4,11.4,3.6c9.2,2.9,13.2-11.5,4-14.5
				c-26.7-8.5-53.5-17-80.2-25.5c-3.8-1.2-7.6-2.4-11.4-3.6C364,89.2,360.1,103.6,369.3,106.5L369.3,106.5z"/>
		</g>
	</g>
</g>
<g id="Layer_7">
	<path class="st5" d="M46.6,326.9c-21.3,5.2-32.3,26.3-31.1,44.3c1,14.4,13.2,30.8,33.5,32.1c22,1.5,36.7-21.7,36.8-41.8
		C85.8,326.9,67.6,326.9,46.6,326.9z"/>
	<path d="M56.2,330c-21.3,5.2-35,23.3-33.8,41.2c1,14.4,11.5,31.1,26.6,32.1c21.9,1.5,36.8-21.7,36.8-41.8
		C85.8,332.3,70.9,330,56.2,330z"/>
	<path class="st6" d="M56.5,341.4c-15.3,3.7-25.2,16.8-24.3,29.7c0.7,10.3,8.3,22.4,19.1,23.1c15.8,1.1,26.5-15.6,26.5-30.1
		C77.8,343,67,341.4,56.5,341.4z"/>
</g>
<g id="Layer_3">
	<path class="st7" d="M357.4,361.6c0,0-89.3,29.9-153.4,46.5c-35.7,9.2-63.6,8.7-63.9,8.5l-87.5-39.4c-2.6-1.2,0.2-5.4,0.6-15.6
		c0.3-7.2-4.5-15.6-3.9-15.8l82.7-36.3c4.3-1.9,128.8-21.5,133.6-21.6c20.5-0.5,58.9-2.1,60.3,13.6c0.4,4.3,4.1,7.6,8.4,7.5
		l16.6-0.4c4.3-0.1,3.9,7.3,4.3,11.6C356.9,337.3,365.3,361.6,357.4,361.6z"/>
	<path class="st7" d="M141.4,385"/>
</g>
<g id="Layer_5">
	<path class="st8" d="M140.1,424.2l-87.5-38.8c0,0-6.5-0.4-6.5-25.3c0-9.2,3.3-14.3,3.3-14.3l92,39.2L140.1,424.2z"/>
	<path class="st9" d="M357.4,368.3c-50.9,24-217.3,55.9-217.3,55.9l-1.4-7.4c-1.7-8.7-1.3-17.7,1.1-26.2l1.6-5.6l94.7-20
		c10.5-2.2,20.6-5.9,30.1-11l84.7-45.4c0,0,7.3-1.5,8.4,7.5C366.5,372.7,364.3,365,357.4,368.3z"/>
</g>
<g id="Layer_4">
	<path class="st10" d="M87.5,329c0-14.6,0-21.6,6-41.4c5.6-18.3,61.5-19.4,91-26.2c39.2-9,105.4-16.8,105.4,5.7
		c0,14.9,0,14.9,0,21.6c0,26.8-43.6,58.1-87,68.3C150.8,369.3,87.5,355.8,87.5,329z"/>
	<path class="st11" d="M87.5,307.4c0-26.8,32.1-52.7,97-67.6c52.2-12,105.4,0.6,105.4,27.4c0,26.8-43.6,58.1-87,68.3
		C150.8,347.7,87.5,334.2,87.5,307.4z"/>
</g>
<g id="Layer_6">
	<path class="st5" d="M139.9,377.1c-29,0-39.4,26.4-38,47.5c1.8,27.2,26.7,32.5,43.5,32.6c15.5,0,34.5-27.7,32.6-47.4
		C176.5,392.6,164.3,377.1,139.9,377.1z"/>
	<path d="M149.6,381.7c-19.6-1.4-36.6,21.2-35.2,42.4c1.8,27.2,15.8,32.6,32.6,32.6c13.8,0,33.4-22.6,32.1-42.4
		C177.4,389.8,165.2,382.9,149.6,381.7z"/>
	<path class="st5" d="M341.2,328.1c-17.2,4.6-30.3,24.6-26.8,46.8c3.6,22.7,15.7,29.9,38.7,29.9c10.6,0,32.6-20.2,32.1-42.1
		C384.8,338.7,363.4,322.2,341.2,328.1z"/>
	<path d="M359.3,332.3c-12.9,0-33.5,19.1-33.5,40.3c0,19.2,12.4,30.8,27.4,30.8c13.8,0,32.1-20.9,32.1-40.6
		C385.3,356.4,380.3,332.3,359.3,332.3z"/>
	<path class="st12" d="M358.3,342.2c-9.3,0-24.1,13.8-24.1,29.1c0,13.8,9,22.2,19.7,22.2c10,0,23.1-15,23.1-29.3
		C377,359.6,373.4,342.2,358.3,342.2z"/>
	<path class="st6" d="M148.8,392.2c-14.1-1-26.4,15.3-25.4,30.5c1.3,19.6,11.4,23.4,23.4,23.4c10,0,24.1-16.3,23.1-30.5
		C168.8,398,160,393,148.8,392.2z"/>
</g>
</svg>
