<?xml version="1.0" encoding="utf-8"?>
<svg version="1.1" xmlns="http://www.w3.org/2000/svg" xmlns:xlink="http://www.w3.org/1999/xlink" x="0px" y="0px"
	 viewBox="0 0 500 500" style="enable-background:new 0 0 500 500;" xml:space="preserve">
<style type="text/css">
	.st0{fill:url(#SVGID_1_);}
	.st1{fill:#FFFFFF;stroke:#000000;stroke-miterlimit:10;}
	.st2{fill:none;}
	.st3{fill:#414042;}
	.st4{fill:#6D6E71;}
	.st5{fill:#58595B;}
	.st6{fill:#212121;}
	.st7{fill:#566987;}
	.st8{fill:#EE2827;}
	.st9{fill:#CE2729;}
	.st10{fill:#B7272E;}
	.st11{fill:#AA1F23;}
	.st12{fill:#E04C58;}
	.st13{fill:#556987;}
</style>
<g id="Layer_2">
	<linearGradient id="SVGID_1_" gradientUnits="userSpaceOnUse" x1="250" y1="0" x2="250" y2="500">
		<stop  offset="0" style="stop-color:#339300"/>
		<stop  offset="1" style="stop-color:#53B332"/>
	</linearGradient>
	<path class="st0" d="M410,500H90c-49.5,0-90-40.5-90-90V90C0,40.5,40.5,0,90,0h320c49.5,0,90,40.5,90,90v320
		C500,459.5,459.5,500,410,500z"/>
</g>
<g id="Layer_1">
	<g>
		<g>
			<path class="st1" d="M284.8,211.6"/>
			<g>
				<line class="st2" x1="365.7" y1="92" x2="272.1" y2="230.2"/>
				<g>
					<path class="st3" d="M359.9,88.5c-10.6,15.6-21.1,31.1-31.6,46.7c-16.8,24.8-33.6,49.6-50.4,74.5c-3.9,5.7-7.7,11.4-11.6,17.1
						c-4.9,7.2,6.9,14,11.7,6.9c10.6-15.6,21.1-31.1,31.6-46.7c16.8-24.8,33.6-49.6,50.4-74.5c3.9-5.7,7.7-11.4,11.6-17.1
						C376.5,88.2,364.7,81.4,359.9,88.5L359.9,88.5z"/>
				</g>
			</g>
			<g>
				<line class="st2" x1="448.4" y1="118.2" x2="325.2" y2="300.3"/>
				<g>
					<path class="st4" d="M442.6,114.8c-13.9,20.6-27.8,41.2-41.7,61.6c-22.1,32.6-44.1,65.3-66.2,97.8
						c-5.1,7.5-10.2,15.1-15.3,22.6c-4.9,7.2,6.9,14,11.7,6.9c13.9-20.6,27.8-41.2,41.7-61.6c22.1-32.6,44.1-65.3,66.2-97.8
						c5.1-7.5,10.2-15.1,15.3-22.6C459.1,114.4,447.5,107.7,442.6,114.8L442.6,114.8z"/>
				</g>
			</g>
			<g>
				<g>
					<path class="st5" d="M363.9,98.5c24.1,7.7,48.3,15.3,72.4,23c3.4,1.1,6.9,2.2,10.3,3.2c8.3,2.6,11.9-10.4,3.6-13.1
						c-24.1-7.7-48.3-15.3-72.4-23c-3.4-1.1-6.9-2.2-10.3-3.2C359.1,82.8,355.6,95.8,363.9,98.5L363.9,98.5z"/>
				</g>
			</g>
		</g>
		<g id="Layer_7">
			<path class="st6" d="M72.7,297.4c-19.2,4.7-29.2,23.7-28.1,40c0.9,13,11.9,27.8,30.2,29c19.9,1.4,33.1-19.6,33.2-37.7
				C108.1,297.4,91.6,297.4,72.7,297.4z"/>
			<path d="M81.3,300.2c-19.2,4.7-31.6,21-30.5,37.2c0.9,13,10.4,28.1,24,29c19.8,1.4,33.2-19.6,33.2-37.7
				C108.1,302.2,94.6,300.2,81.3,300.2z"/>
			<path class="st7" d="M81.6,310.4c-13.8,3.3-22.7,15.2-21.9,26.8c0.6,9.3,7.5,20.2,17.2,20.8c14.3,1,23.9-14.1,23.9-27.2
				C100.8,311.9,91.1,310.4,81.6,310.4z"/>
		</g>
		<g id="Layer_3">
			<path class="st8" d="M353.2,328.7c0,0-80.6,27-138.4,42c-32.2,8.3-57.4,7.9-57.7,7.7l-79-35.6c-2.3-1.1,0.2-4.9,0.5-14.1
				c0.3-6.5-4.1-14.1-3.5-14.3l74.6-32.8c3.9-1.7,116.2-19.4,120.6-19.5c18.5-0.5,53.2-1.9,54.4,12.3c0.4,3.9,3.7,6.9,7.6,6.8
				l15-0.4c3.9-0.1,3.5,6.6,3.9,10.5C352.7,306.7,360.3,328.7,353.2,328.7z"/>
			<path class="st8" d="M158.2,349.8"/>
		</g>
		<g id="Layer_5">
			<path class="st9" d="M157.1,385.2l-79-35c0,0-5.9-0.4-5.9-22.8c0-8.3,3-12.9,3-12.9l83,35.4L157.1,385.2z"/>
			<path class="st10" d="M353.2,334.7c-45.9,21.7-196.1,50.4-196.1,50.4l-1.3-6.7c-1.5-7.9-1.2-16,1-23.6l1.4-5.1l85.5-18
				c9.5-2,18.6-5.3,27.2-9.9l76.4-41c0,0,6.6-1.4,7.6,6.8C361.4,338.7,359.4,331.7,353.2,334.7z"/>
		</g>
		<g id="Layer_4">
			<path class="st11" d="M109.6,299.3c0-13.2,0-19.5,5.4-37.4c5.1-16.5,55.5-17.5,82.1-23.6c35.4-8.1,95.1-15.2,95.1,5.1
				c0,13.4,0,13.4,0,19.5c0,24.2-39.3,52.4-78.5,61.6C166.7,335.6,109.6,323.4,109.6,299.3z"/>
			<path class="st12" d="M109.6,279.8c0-24.2,29-47.6,87.5-61c47.1-10.8,95.1,0.5,95.1,24.7s-39.3,52.4-78.5,61.6
				C166.7,316.1,109.6,304,109.6,279.8z"/>
		</g>
		<g id="Layer_6">
			<path class="st6" d="M156.9,342.7c-26.2,0-35.6,23.8-34.3,42.9c1.6,24.5,24.1,29.3,39.3,29.4c14,0,31.1-25,29.4-42.8
				C189.9,356.7,178.9,342.7,156.9,342.7z"/>
			<path d="M165.6,346.8c-17.7-1.3-33,19.1-31.8,38.3c1.6,24.5,14.3,29.4,29.4,29.4c12.5,0,30.1-20.4,29-38.3
				C190.7,354.1,179.7,347.9,165.6,346.8z"/>
			<path class="st6" d="M338.6,298.4c-15.5,4.2-27.3,22.2-24.2,42.2c3.2,20.5,14.2,27,34.9,27c9.6,0,29.4-18.2,29-38
				C377.9,308,358.6,293.1,338.6,298.4z"/>
			<path d="M354.9,302.2c-11.6,0-30.2,17.2-30.2,36.4c0,17.3,11.2,27.8,24.7,27.8c12.5,0,29-18.9,29-36.6
				C378.4,324,373.8,302.2,354.9,302.2z"/>
			<path class="st13" d="M354,311.2c-8.4,0-21.8,12.5-21.8,26.3c0,12.5,8.1,20,17.8,20c9,0,20.8-13.5,20.8-26.4
				C370.9,326.9,367.6,311.2,354,311.2z"/>
			<path class="st7" d="M164.9,356.3c-12.7-0.9-23.8,13.8-22.9,27.5c1.2,17.7,10.3,21.1,21.1,21.1c9,0,21.8-14.7,20.8-27.5
				C183,361.5,175,357,164.9,356.3z"/>
		</g>
	</g>
</g>
</svg>
