<?xml version="1.0" encoding="utf-8"?>
<svg version="1.1" xmlns="http://www.w3.org/2000/svg" xmlns:xlink="http://www.w3.org/1999/xlink" x="0px" y="0px"
	 viewBox="0 0 500 500" style="enable-background:new 0 0 500 500;" xml:space="preserve">
<style type="text/css">
	.st0{fill:#096D38;}
	.st1{fill:#009444;}
</style>
<g id="RightWheel">
	<path class="st0" d="M423.4,308.8c-13.3,0-24.2,10.8-24.2,24.2s10.8,24.2,24.2,24.2s24.2-10.8,24.2-24.2S436.7,308.8,423.4,308.8z
		 M423.4,352.3c-10.7,0-19.3-8.7-19.3-19.3s8.7-19.3,19.3-19.3s19.3,8.7,19.3,19.3S434.1,352.3,423.4,352.3z"/>
	<path class="st0" d="M423.9,333c-3.7,4.1,2.1-15.8,8.8-17c5.4-0.9,13.5,8,9.5,12C440.3,329.8,431.9,324.1,423.9,333z"/>
	<path class="st0" d="M422.2,333c0.2-5.5,11.3,13.3,6.9,18.5c-3.5,4.1-16.7,3.4-16.2-2.2C413.1,346.8,421.7,344.9,422.2,333z"/>
	<path class="st0" d="M423.4,332c4.2,3.5-19.4,0.7-19.3-6.1c0-5.4,7.2-14.7,10.5-10.1C416,317.8,414.2,324.3,423.4,332z"/>
</g>
<g id="LeftWheel">
	<path class="st0" d="M297.4,308.8c-13.3,0-24.2,10.8-24.2,24.2s10.8,24.2,24.2,24.2s24.2-10.8,24.2-24.2S310.7,308.8,297.4,308.8z
		 M297.4,352.3c-10.7,0-19.3-8.7-19.3-19.3s8.7-19.3,19.3-19.3s19.3,8.7,19.3,19.3S308.1,352.3,297.4,352.3z"/>
	<path class="st0" d="M297.9,333c-3.7,4.1,2.1-15.8,8.8-17c5.4-0.9,13.5,8,9.5,12C314.3,329.8,305.9,324.1,297.9,333z"/>
	<path class="st0" d="M296.2,333c0.2-5.5,11.3,13.3,6.9,18.5c-3.5,4.1-16.7,3.4-16.2-2.2C287.1,346.8,295.7,344.9,296.2,333z"/>
	<path class="st0" d="M297.4,332c4.2,3.5-19.4,0.7-19.3-6.1c0-5.4,7.2-14.7,10.5-10.1C290,317.8,288.2,324.3,297.4,332z"/>
</g>
<g id="MowerBody">
	<path class="st0" d="M39.3,147c9.3,0,34,0,70.6,0c10.2,0,21.3,7.5,36.5,20.5c27.9,24,53.9,53.9,69.5,69.5c1.3,1.3-2.1,8-4.1,6
		c-15-15-69.8-78.6-98.3-86.7c-15-4.3-42.5-3.4-69.6-3.4C37.9,152.9,36.3,147,39.3,147z"/>
	<path class="st1" d="M242.6,290.2h213.6c17.5,0,31.7,14.3,31.7,31.7v7.6c0,2.4-2,4.4-4.4,4.4H242.6c-6.6,0-12-5.4-12-12v-19.7
		C230.6,295.6,236,290.2,242.6,290.2z"/>
	<path class="st1" d="M283.8,262.8h121.9c9.7,0,17.6,7.9,17.6,17.6v5.2c0,3.9-3.2,2-7.2,2H273.4c-3.9,0-7.2-0.2-7.2-4.2v-3
		C266.2,270.7,274.2,262.8,283.8,262.8z"/>
	<path class="st1" d="M323.1,243h44c7.8,0,14.1,6.4,14.1,14.1v5.7H310v-6.7C310,248.9,315.9,243,323.1,243z"/>
	<path class="st1" d="M245.4,321.7h-86.3c-6.6,0-12-5.4-12-12v-76.3c0-6.6,5.4-12,12-12h50.5c6.6,0,19.4,0,24.8,12l42.2,80.7
		C276.6,320.7,252,321.7,245.4,321.7z"/>
	<path class="st1" d="M12.1,147c9.3,0,34,0,70.6,0c10.2,0,21.3,7.5,36.5,20.5c27.9,24,53.9,53.9,69.5,69.5c1.3,1.3-2.1,8-4.1,6
		c-15-15-69.8-78.6-98.3-86.7c-15-4.3-42.5-1.4-69.6-1.4C10.6,154.9,9,147,12.1,147z"/>
</g>
</svg>
